# xmcd
#
# Track frame offsets: 
#        151
#        18533
#        34731
#        48955
#        63146
#        76993
#        93380
#        109395
#        126147
#        143994
#        161763
#        182631
#        199464
#        214697
#        232487
#        248677
#        267665
#
# Disc length: 3789 seconds
#
# Revision: 0
# Processed by: cddbd v1.4PL0 Copyright (c) Steve Scherf et al.
# Submitted via: ExactAudioCopy v0.90b4
#
DISCID=fc0ecb11
DTITLE=Alabama - Legendary Alabama - Disc 1
DYEAR=1900
DGENRE=Country
TTITLE0=My Home's In Alabama
TTITLE1=Feels So Right
TTITLE2=Why Lady Why
TTITLE3=Old Flame
TTITLE4=Tennessee River
TTITLE5=Mountain Music
TTITLE6=Close Enough To Perfect
TTITLE7=Take Me Down
TTITLE8=Lady Down On Love
TTITLE9=Dixieland Delight
TTITLE10=Very Special Love
TTITLE11=Roll On (Eighteen Wheeler)
TTITLE12=If You're Gonna Play In Texas (You Gotta Have A Fiddler In Th
TTITLE12=e Band)
TTITLE13=There's A Fire In The Night
TTITLE14=When We Make Love
TTITLE15=There's No Way
TTITLE16=Can't Keep A Good Man Down
EXTD=
EXTT0=
EXTT1=
EXTT2=
EXTT3=
EXTT4=
EXTT5=
EXTT6=
EXTT7=
EXTT8=
EXTT9=
EXTT10=
EXTT11=
EXTT12=
EXTT13=
EXTT14=
EXTT15=
EXTT16=
PLAYORDER=
